# xmcd CD database file
#
# Track frame offsets:
#	150
#	22763
#	40621
#	63229
#
# Disc length: 1077 seconds
#
# Revision: 4
# Processed by: cddbd v1.5.2PL0 Copyright (c) Steve Scherf et al.
# Submitted via: CDex 1.70beta2
#
DISCID=21043304
DTITLE=AAA - 777 ～We can sing a song!～
DYEAR=2012
DGENRE=J-Pop
TTITLE0=777 ～We can sing a song!～
TTITLE1=Birthday song
TTITLE2=777 ～We can sing a song!～ (Instrumental)
TTITLE3=Birthday song (Instrumental)
EXTD=YEAR: 2012
EXTT0=
EXTT1=
EXTT2=
EXTT3=
PLAYORDER=
